<mxfile host="app.diagrams.net" modified="2023-05-17T16:31:03.696Z" agent="Mozilla/5.0 (Windows NT 10.0; Win64; x64) AppleWebKit/537.36 (KHTML, like Gecko) Chrome/113.0.0.0 Safari/537.36" etag="Jx2gn0swO5PID9J8gLL8" version="21.3.2" type="device">
  <diagram name="Page-1" id="HiQQ755nmSSbNRLTUAPr">
    <mxGraphModel dx="1577" dy="630" grid="0" gridSize="10" guides="1" tooltips="1" connect="1" arrows="1" fold="1" page="0" pageScale="1" pageWidth="850" pageHeight="1100" math="0" shadow="0">
      <root>
        <mxCell id="0" />
        <mxCell id="1" parent="0" />
        <mxCell id="yfIqBmDYOENal--9FzKk-6" style="edgeStyle=orthogonalEdgeStyle;rounded=0;orthogonalLoop=1;jettySize=auto;html=1;dashed=1;dashPattern=12 12;" parent="1" source="u_Wp-B7MnKJxYU2RvBDN-40" edge="1">
          <mxGeometry relative="1" as="geometry">
            <mxPoint x="100" y="1971" as="targetPoint" />
            <Array as="points">
              <mxPoint x="100" y="1130" />
              <mxPoint x="100" y="1130" />
            </Array>
          </mxGeometry>
        </mxCell>
        <mxCell id="yfIqBmDYOENal--9FzKk-1" value="Frontend" style="rounded=1;whiteSpace=wrap;html=1;" parent="1" vertex="1">
          <mxGeometry x="40" y="230" width="120" height="60" as="geometry" />
        </mxCell>
        <mxCell id="yfIqBmDYOENal--9FzKk-2" value="Heart rate service" style="rounded=1;whiteSpace=wrap;html=1;" parent="1" vertex="1">
          <mxGeometry x="200" y="230" width="120" height="60" as="geometry" />
        </mxCell>
        <mxCell id="yfIqBmDYOENal--9FzKk-3" value="Google Fit API" style="rounded=1;whiteSpace=wrap;html=1;" parent="1" vertex="1">
          <mxGeometry x="360" y="230" width="120" height="60" as="geometry" />
        </mxCell>
        <mxCell id="yfIqBmDYOENal--9FzKk-4" value="ML Service" style="rounded=1;whiteSpace=wrap;html=1;" parent="1" vertex="1">
          <mxGeometry x="520" y="230" width="120" height="60" as="geometry" />
        </mxCell>
        <mxCell id="yfIqBmDYOENal--9FzKk-5" value="Data storage" style="rounded=1;whiteSpace=wrap;html=1;" parent="1" vertex="1">
          <mxGeometry x="680" y="230" width="120" height="60" as="geometry" />
        </mxCell>
        <mxCell id="yfIqBmDYOENal--9FzKk-7" style="edgeStyle=orthogonalEdgeStyle;rounded=0;orthogonalLoop=1;jettySize=auto;html=1;dashed=1;dashPattern=12 12;exitX=1;exitY=0.5;exitDx=0;exitDy=0;" parent="1" source="xFeP8VPzGv1GcxXWumZ8-54" edge="1">
          <mxGeometry relative="1" as="geometry">
            <mxPoint x="259.5" y="1971" as="targetPoint" />
            <mxPoint x="259.4999999999998" y="830" as="sourcePoint" />
          </mxGeometry>
        </mxCell>
        <mxCell id="yfIqBmDYOENal--9FzKk-8" style="edgeStyle=orthogonalEdgeStyle;rounded=0;orthogonalLoop=1;jettySize=auto;html=1;dashed=1;dashPattern=12 12;" parent="1" source="xFeP8VPzGv1GcxXWumZ8-61" edge="1">
          <mxGeometry relative="1" as="geometry">
            <mxPoint x="419.5" y="1971" as="targetPoint" />
            <mxPoint x="419.5" y="290" as="sourcePoint" />
          </mxGeometry>
        </mxCell>
        <mxCell id="yfIqBmDYOENal--9FzKk-9" style="edgeStyle=orthogonalEdgeStyle;rounded=0;orthogonalLoop=1;jettySize=auto;html=1;dashed=1;dashPattern=12 12;" parent="1" source="xFeP8VPzGv1GcxXWumZ8-102" edge="1">
          <mxGeometry relative="1" as="geometry">
            <mxPoint x="579.5" y="1971" as="targetPoint" />
            <mxPoint x="579.5" y="290" as="sourcePoint" />
          </mxGeometry>
        </mxCell>
        <mxCell id="yfIqBmDYOENal--9FzKk-10" style="edgeStyle=orthogonalEdgeStyle;rounded=0;orthogonalLoop=1;jettySize=auto;html=1;dashed=1;dashPattern=12 12;" parent="1" edge="1">
          <mxGeometry relative="1" as="geometry">
            <mxPoint x="739.5" y="1971" as="targetPoint" />
            <mxPoint x="739.5" y="580" as="sourcePoint" />
          </mxGeometry>
        </mxCell>
        <mxCell id="xFeP8VPzGv1GcxXWumZ8-5" value="" style="edgeStyle=orthogonalEdgeStyle;rounded=0;orthogonalLoop=1;jettySize=auto;html=1;endArrow=none;endFill=0;dashed=1;dashPattern=12 12;" parent="1" edge="1">
          <mxGeometry relative="1" as="geometry">
            <mxPoint x="259.5" y="340" as="targetPoint" />
            <mxPoint x="259.5" y="290" as="sourcePoint" />
          </mxGeometry>
        </mxCell>
        <mxCell id="xFeP8VPzGv1GcxXWumZ8-9" style="edgeStyle=orthogonalEdgeStyle;rounded=0;orthogonalLoop=1;jettySize=auto;html=1;endArrow=none;endFill=0;startArrow=classic;startFill=1;" parent="1" edge="1">
          <mxGeometry relative="1" as="geometry">
            <mxPoint x="97" y="450" as="targetPoint" />
            <mxPoint x="250" y="450" as="sourcePoint" />
            <Array as="points">
              <mxPoint x="97" y="450" />
            </Array>
          </mxGeometry>
        </mxCell>
        <mxCell id="xFeP8VPzGv1GcxXWumZ8-26" style="edgeStyle=orthogonalEdgeStyle;rounded=0;orthogonalLoop=1;jettySize=auto;html=1;endArrow=classic;endFill=1;startArrow=none;startFill=0;" parent="1" edge="1">
          <mxGeometry relative="1" as="geometry">
            <mxPoint x="107.5" y="550" as="targetPoint" />
            <mxPoint x="405.51" y="549.31" as="sourcePoint" />
            <Array as="points">
              <mxPoint x="252.51" y="549.31" />
            </Array>
          </mxGeometry>
        </mxCell>
        <mxCell id="xFeP8VPzGv1GcxXWumZ8-27" style="edgeStyle=orthogonalEdgeStyle;rounded=0;orthogonalLoop=1;jettySize=auto;html=1;endArrow=classic;endFill=1;startArrow=none;startFill=0;" parent="1" edge="1">
          <mxGeometry relative="1" as="geometry">
            <mxPoint x="107.5" y="490" as="targetPoint" />
            <mxPoint x="247.5" y="490" as="sourcePoint" />
            <Array as="points">
              <mxPoint x="247.5" y="490" />
              <mxPoint x="247.5" y="490" />
            </Array>
          </mxGeometry>
        </mxCell>
        <mxCell id="xFeP8VPzGv1GcxXWumZ8-28" style="edgeStyle=orthogonalEdgeStyle;rounded=0;orthogonalLoop=1;jettySize=auto;html=1;endArrow=classic;endFill=1;startArrow=none;startFill=0;" parent="1" edge="1">
          <mxGeometry relative="1" as="geometry">
            <mxPoint x="267.75" y="792" as="targetPoint" />
            <mxPoint x="563.25" y="792" as="sourcePoint" />
            <Array as="points">
              <mxPoint x="410.25" y="792" />
            </Array>
          </mxGeometry>
        </mxCell>
        <mxCell id="xFeP8VPzGv1GcxXWumZ8-30" style="edgeStyle=orthogonalEdgeStyle;rounded=0;orthogonalLoop=1;jettySize=auto;html=1;endArrow=none;endFill=0;startArrow=classic;startFill=1;" parent="1" edge="1">
          <mxGeometry relative="1" as="geometry">
            <mxPoint x="107.5" y="510" as="targetPoint" />
            <mxPoint x="407.5" y="510.3399999999999" as="sourcePoint" />
            <Array as="points">
              <mxPoint x="177.5" y="510" />
            </Array>
          </mxGeometry>
        </mxCell>
        <mxCell id="xFeP8VPzGv1GcxXWumZ8-32" style="edgeStyle=orthogonalEdgeStyle;rounded=0;orthogonalLoop=1;jettySize=auto;html=1;endArrow=none;endFill=0;startArrow=classic;startFill=1;" parent="1" edge="1">
          <mxGeometry relative="1" as="geometry">
            <mxPoint x="265.52" y="610" as="targetPoint" />
            <mxPoint x="738" y="610" as="sourcePoint" />
            <Array as="points">
              <mxPoint x="265.52" y="610" />
            </Array>
          </mxGeometry>
        </mxCell>
        <mxCell id="xFeP8VPzGv1GcxXWumZ8-33" style="edgeStyle=orthogonalEdgeStyle;rounded=0;orthogonalLoop=1;jettySize=auto;html=1;endArrow=none;endFill=0;startArrow=classic;startFill=1;" parent="1" edge="1">
          <mxGeometry relative="1" as="geometry">
            <mxPoint x="99.75" y="712" as="targetPoint" />
            <mxPoint x="252.75" y="712" as="sourcePoint" />
            <Array as="points">
              <mxPoint x="99.75" y="712" />
            </Array>
          </mxGeometry>
        </mxCell>
        <mxCell id="xFeP8VPzGv1GcxXWumZ8-34" style="edgeStyle=orthogonalEdgeStyle;rounded=0;orthogonalLoop=1;jettySize=auto;html=1;endArrow=none;endFill=0;startArrow=classic;startFill=1;" parent="1" edge="1">
          <mxGeometry relative="1" as="geometry">
            <mxPoint x="270.25" y="722" as="targetPoint" />
            <mxPoint x="412.75" y="722" as="sourcePoint" />
            <Array as="points">
              <mxPoint x="270.25" y="722" />
            </Array>
          </mxGeometry>
        </mxCell>
        <mxCell id="xFeP8VPzGv1GcxXWumZ8-42" style="edgeStyle=orthogonalEdgeStyle;rounded=0;orthogonalLoop=1;jettySize=auto;html=1;endArrow=none;endFill=0;startArrow=classic;startFill=1;" parent="1" edge="1">
          <mxGeometry relative="1" as="geometry">
            <mxPoint x="267.75" y="812.42" as="targetPoint" />
            <mxPoint x="740.25" y="812.42" as="sourcePoint" />
            <Array as="points">
              <mxPoint x="267.75" y="812.42" />
            </Array>
          </mxGeometry>
        </mxCell>
        <mxCell id="xFeP8VPzGv1GcxXWumZ8-43" style="edgeStyle=orthogonalEdgeStyle;rounded=0;orthogonalLoop=1;jettySize=auto;html=1;endArrow=none;endFill=0;startArrow=classic;startFill=1;" parent="1" edge="1">
          <mxGeometry relative="1" as="geometry">
            <mxPoint x="269.75" y="762" as="targetPoint" />
            <mxPoint x="567.75" y="762" as="sourcePoint" />
            <Array as="points">
              <mxPoint x="269.75" y="762" />
            </Array>
          </mxGeometry>
        </mxCell>
        <mxCell id="xFeP8VPzGv1GcxXWumZ8-45" style="edgeStyle=orthogonalEdgeStyle;rounded=0;orthogonalLoop=1;jettySize=auto;html=1;endArrow=classic;endFill=1;startArrow=none;startFill=0;" parent="1" edge="1">
          <mxGeometry relative="1" as="geometry">
            <mxPoint x="100.25" y="832" as="targetPoint" />
            <mxPoint x="252.75" y="812" as="sourcePoint" />
            <Array as="points">
              <mxPoint x="253.25" y="832" />
              <mxPoint x="100.25" y="832" />
            </Array>
          </mxGeometry>
        </mxCell>
        <mxCell id="xFeP8VPzGv1GcxXWumZ8-67" value="" style="edgeStyle=orthogonalEdgeStyle;rounded=0;orthogonalLoop=1;jettySize=auto;html=1;endArrow=none;endFill=0;dashed=1;dashPattern=12 12;exitX=1;exitY=0.5;exitDx=0;exitDy=0;" parent="1" target="xFeP8VPzGv1GcxXWumZ8-53" edge="1">
          <mxGeometry relative="1" as="geometry">
            <mxPoint x="259.5" y="1971" as="targetPoint" />
            <mxPoint x="260" y="370" as="sourcePoint" />
          </mxGeometry>
        </mxCell>
        <mxCell id="xFeP8VPzGv1GcxXWumZ8-53" value="" style="rounded=1;whiteSpace=wrap;html=1;direction=south;" parent="1" vertex="1">
          <mxGeometry x="250" y="450" width="15" height="40" as="geometry" />
        </mxCell>
        <mxCell id="xFeP8VPzGv1GcxXWumZ8-83" value="" style="edgeStyle=orthogonalEdgeStyle;rounded=0;orthogonalLoop=1;jettySize=auto;html=1;dashed=1;dashPattern=12 12;endArrow=none;endFill=0;" parent="1" source="xFeP8VPzGv1GcxXWumZ8-53" target="xFeP8VPzGv1GcxXWumZ8-54" edge="1">
          <mxGeometry relative="1" as="geometry">
            <mxPoint x="259.5" y="1971" as="targetPoint" />
            <mxPoint x="260" y="490" as="sourcePoint" />
          </mxGeometry>
        </mxCell>
        <mxCell id="xFeP8VPzGv1GcxXWumZ8-54" value="" style="rounded=1;whiteSpace=wrap;html=1;direction=south;" parent="1" vertex="1">
          <mxGeometry x="252.75" y="712" width="15" height="120" as="geometry" />
        </mxCell>
        <mxCell id="xFeP8VPzGv1GcxXWumZ8-86" value="" style="edgeStyle=orthogonalEdgeStyle;rounded=0;orthogonalLoop=1;jettySize=auto;html=1;dashed=1;dashPattern=12 12;endArrow=none;endFill=0;" parent="1" target="xFeP8VPzGv1GcxXWumZ8-55" edge="1">
          <mxGeometry relative="1" as="geometry">
            <mxPoint x="419.5" y="1971" as="targetPoint" />
            <mxPoint x="419.5" y="290" as="sourcePoint" />
          </mxGeometry>
        </mxCell>
        <mxCell id="xFeP8VPzGv1GcxXWumZ8-55" value="" style="rounded=1;whiteSpace=wrap;html=1;direction=south;" parent="1" vertex="1">
          <mxGeometry x="412.5" y="510" width="15" height="40" as="geometry" />
        </mxCell>
        <mxCell id="xFeP8VPzGv1GcxXWumZ8-87" style="edgeStyle=orthogonalEdgeStyle;rounded=0;orthogonalLoop=1;jettySize=auto;html=1;endArrow=none;endFill=0;startArrow=classic;startFill=1;" parent="1" edge="1">
          <mxGeometry relative="1" as="geometry">
            <mxPoint x="111.88" y="590.3399999999999" as="targetPoint" />
            <mxPoint x="249.13" y="590" as="sourcePoint" />
            <Array as="points">
              <mxPoint x="142.13" y="590.3399999999999" />
              <mxPoint x="142.13" y="590.3399999999999" />
            </Array>
          </mxGeometry>
        </mxCell>
        <mxCell id="xFeP8VPzGv1GcxXWumZ8-88" style="edgeStyle=orthogonalEdgeStyle;rounded=0;orthogonalLoop=1;jettySize=auto;html=1;endArrow=classic;endFill=1;startArrow=none;startFill=0;" parent="1" edge="1">
          <mxGeometry relative="1" as="geometry">
            <mxPoint x="97.5" y="630" as="targetPoint" />
            <mxPoint x="250.5" y="630" as="sourcePoint" />
            <Array as="points">
              <mxPoint x="97.5" y="630" />
            </Array>
          </mxGeometry>
        </mxCell>
        <mxCell id="xFeP8VPzGv1GcxXWumZ8-89" value="" style="rounded=1;whiteSpace=wrap;html=1;direction=south;" parent="1" vertex="1">
          <mxGeometry x="250.25" y="590" width="15" height="40" as="geometry" />
        </mxCell>
        <mxCell id="xFeP8VPzGv1GcxXWumZ8-90" value="" style="edgeStyle=orthogonalEdgeStyle;rounded=0;orthogonalLoop=1;jettySize=auto;html=1;dashed=1;dashPattern=12 12;endArrow=none;endFill=0;exitX=0.5;exitY=1;exitDx=0;exitDy=0;" parent="1" source="yfIqBmDYOENal--9FzKk-5" edge="1">
          <mxGeometry relative="1" as="geometry">
            <mxPoint x="739.5" y="560" as="targetPoint" />
            <mxPoint x="739.5" y="390" as="sourcePoint" />
          </mxGeometry>
        </mxCell>
        <mxCell id="xFeP8VPzGv1GcxXWumZ8-103" value="" style="edgeStyle=orthogonalEdgeStyle;rounded=0;orthogonalLoop=1;jettySize=auto;html=1;dashed=1;dashPattern=12 12;endArrow=none;endFill=0;" parent="1" target="xFeP8VPzGv1GcxXWumZ8-102" edge="1">
          <mxGeometry relative="1" as="geometry">
            <mxPoint x="579.5" y="1971" as="targetPoint" />
            <mxPoint x="579.5" y="290" as="sourcePoint" />
          </mxGeometry>
        </mxCell>
        <mxCell id="xFeP8VPzGv1GcxXWumZ8-102" value="" style="rounded=1;whiteSpace=wrap;html=1;direction=south;" parent="1" vertex="1">
          <mxGeometry x="570.25" y="762" width="15" height="30" as="geometry" />
        </mxCell>
        <mxCell id="9ts8WiNrW34T15GEBxfx-7" value="" style="edgeStyle=orthogonalEdgeStyle;rounded=0;orthogonalLoop=1;jettySize=auto;html=1;dashed=1;dashPattern=12 12;endArrow=none;endFill=0;exitX=1;exitY=0.5;exitDx=0;exitDy=0;" parent="1" source="xFeP8VPzGv1GcxXWumZ8-55" target="xFeP8VPzGv1GcxXWumZ8-61" edge="1">
          <mxGeometry relative="1" as="geometry">
            <mxPoint x="419.5" y="1971" as="targetPoint" />
            <mxPoint x="420" y="551" as="sourcePoint" />
          </mxGeometry>
        </mxCell>
        <mxCell id="xFeP8VPzGv1GcxXWumZ8-61" value="" style="rounded=1;whiteSpace=wrap;html=1;direction=south;" parent="1" vertex="1">
          <mxGeometry x="412.75" y="722" width="15" height="30" as="geometry" />
        </mxCell>
        <mxCell id="9ts8WiNrW34T15GEBxfx-9" style="edgeStyle=orthogonalEdgeStyle;rounded=0;orthogonalLoop=1;jettySize=auto;html=1;endArrow=classic;endFill=1;startArrow=none;startFill=0;" parent="1" edge="1">
          <mxGeometry relative="1" as="geometry">
            <mxPoint x="267.75" y="752" as="targetPoint" />
            <mxPoint x="407.75" y="752.42" as="sourcePoint" />
            <Array as="points">
              <mxPoint x="337.75" y="752.42" />
            </Array>
          </mxGeometry>
        </mxCell>
        <mxCell id="u_Wp-B7MnKJxYU2RvBDN-1" value="&lt;font style=&quot;font-size: 10px;&quot;&gt;Register in system&amp;nbsp;request&lt;/font&gt;" style="text;html=1;align=center;verticalAlign=middle;resizable=0;points=[];autosize=1;strokeColor=none;fillColor=none;" parent="1" vertex="1">
          <mxGeometry x="112.75" y="315" width="140" height="30" as="geometry" />
        </mxCell>
        <mxCell id="u_Wp-B7MnKJxYU2RvBDN-6" value="&lt;font style=&quot;font-size: 10px;&quot;&gt;Authorization google fit&amp;nbsp;&lt;br style=&quot;border-color: var(--border-color);&quot;&gt;request with empty body&lt;/font&gt;" style="text;html=1;align=center;verticalAlign=middle;resizable=0;points=[];autosize=1;strokeColor=none;fillColor=none;" parent="1" vertex="1">
          <mxGeometry x="108.99" y="429" width="126" height="41" as="geometry" />
        </mxCell>
        <mxCell id="u_Wp-B7MnKJxYU2RvBDN-9" value="&lt;font style=&quot;font-size: 10px;&quot;&gt;Save data&lt;/font&gt;" style="text;html=1;align=center;verticalAlign=middle;resizable=0;points=[];autosize=1;strokeColor=none;fillColor=none;" parent="1" vertex="1">
          <mxGeometry x="628" y="590" width="70" height="30" as="geometry" />
        </mxCell>
        <mxCell id="u_Wp-B7MnKJxYU2RvBDN-10" value="&lt;font style=&quot;font-size: 10px;&quot;&gt;Save data&lt;/font&gt;" style="text;html=1;align=center;verticalAlign=middle;resizable=0;points=[];autosize=1;strokeColor=none;fillColor=none;" parent="1" vertex="1">
          <mxGeometry x="630.25" y="792" width="70" height="30" as="geometry" />
        </mxCell>
        <mxCell id="u_Wp-B7MnKJxYU2RvBDN-18" style="edgeStyle=orthogonalEdgeStyle;rounded=0;orthogonalLoop=1;jettySize=auto;html=1;endArrow=none;endFill=0;startArrow=classic;startFill=1;" parent="1" edge="1">
          <mxGeometry relative="1" as="geometry">
            <mxPoint x="267.77" y="354" as="targetPoint" />
            <mxPoint x="740.25" y="354" as="sourcePoint" />
            <Array as="points">
              <mxPoint x="267.77" y="354" />
            </Array>
          </mxGeometry>
        </mxCell>
        <mxCell id="u_Wp-B7MnKJxYU2RvBDN-19" style="edgeStyle=orthogonalEdgeStyle;rounded=0;orthogonalLoop=1;jettySize=auto;html=1;endArrow=none;endFill=0;startArrow=classic;startFill=1;" parent="1" edge="1">
          <mxGeometry relative="1" as="geometry">
            <mxPoint x="99.75" y="334" as="targetPoint" />
            <mxPoint x="252.75" y="334" as="sourcePoint" />
            <Array as="points">
              <mxPoint x="99.75" y="334" />
            </Array>
          </mxGeometry>
        </mxCell>
        <mxCell id="u_Wp-B7MnKJxYU2RvBDN-20" style="edgeStyle=orthogonalEdgeStyle;rounded=0;orthogonalLoop=1;jettySize=auto;html=1;endArrow=classic;endFill=1;startArrow=none;startFill=0;" parent="1" edge="1">
          <mxGeometry relative="1" as="geometry">
            <mxPoint x="99.75" y="374" as="targetPoint" />
            <mxPoint x="252.75" y="374" as="sourcePoint" />
            <Array as="points">
              <mxPoint x="99.75" y="374" />
            </Array>
          </mxGeometry>
        </mxCell>
        <mxCell id="u_Wp-B7MnKJxYU2RvBDN-21" value="" style="rounded=1;whiteSpace=wrap;html=1;direction=south;" parent="1" vertex="1">
          <mxGeometry x="252.75" y="334" width="15" height="40" as="geometry" />
        </mxCell>
        <mxCell id="u_Wp-B7MnKJxYU2RvBDN-22" value="&lt;font style=&quot;font-size: 10px;&quot;&gt;Save data&lt;/font&gt;" style="text;html=1;align=center;verticalAlign=middle;resizable=0;points=[];autosize=1;strokeColor=none;fillColor=none;" parent="1" vertex="1">
          <mxGeometry x="630.25" y="334" width="70" height="30" as="geometry" />
        </mxCell>
        <mxCell id="u_Wp-B7MnKJxYU2RvBDN-23" value="&lt;font style=&quot;font-size: 9.5px;&quot;&gt;Redirect&lt;/font&gt;" style="text;html=1;align=center;verticalAlign=middle;resizable=0;points=[];autosize=1;strokeColor=none;fillColor=none;" parent="1" vertex="1">
          <mxGeometry x="145" y="470" width="60" height="30" as="geometry" />
        </mxCell>
        <mxCell id="u_Wp-B7MnKJxYU2RvBDN-33" value="&lt;font style=&quot;font-size: 9.5px;&quot;&gt;Сalculation status sleep request&lt;/font&gt;" style="text;html=1;align=center;verticalAlign=middle;resizable=0;points=[];autosize=1;strokeColor=none;fillColor=none;" parent="1" vertex="1">
          <mxGeometry x="407.49" y="742" width="160" height="30" as="geometry" />
        </mxCell>
        <mxCell id="u_Wp-B7MnKJxYU2RvBDN-38" value="&lt;font style=&quot;font-size: 10px;&quot;&gt;Register in system&amp;nbsp;response&lt;/font&gt;" style="text;html=1;align=center;verticalAlign=middle;resizable=0;points=[];autosize=1;strokeColor=none;fillColor=none;" parent="1" vertex="1">
          <mxGeometry x="107.75" y="355" width="150" height="30" as="geometry" />
        </mxCell>
        <mxCell id="u_Wp-B7MnKJxYU2RvBDN-41" value="" style="edgeStyle=orthogonalEdgeStyle;rounded=0;orthogonalLoop=1;jettySize=auto;html=1;dashed=1;dashPattern=12 12;endArrow=none;endFill=0;" parent="1" source="yfIqBmDYOENal--9FzKk-1" target="u_Wp-B7MnKJxYU2RvBDN-40" edge="1">
          <mxGeometry relative="1" as="geometry">
            <mxPoint x="100" y="1971" as="targetPoint" />
            <Array as="points" />
            <mxPoint x="100" y="290" as="sourcePoint" />
          </mxGeometry>
        </mxCell>
        <mxCell id="u_Wp-B7MnKJxYU2RvBDN-40" value="" style="rounded=1;whiteSpace=wrap;html=1;direction=south;" parent="1" vertex="1">
          <mxGeometry x="92.75" y="550" width="15" height="40" as="geometry" />
        </mxCell>
        <mxCell id="u_Wp-B7MnKJxYU2RvBDN-39" value="" style="rounded=1;whiteSpace=wrap;html=1;direction=south;" parent="1" vertex="1">
          <mxGeometry x="90" y="490" width="15" height="20" as="geometry" />
        </mxCell>
        <mxCell id="u_Wp-B7MnKJxYU2RvBDN-46" value="&lt;font style=&quot;font-size: 9.5px;&quot;&gt;Authorization google fit&amp;nbsp;response&lt;/font&gt;" style="text;html=1;align=center;verticalAlign=middle;resizable=0;points=[];autosize=1;strokeColor=none;fillColor=none;" parent="1" vertex="1">
          <mxGeometry x="255" y="530" width="160" height="30" as="geometry" />
        </mxCell>
        <mxCell id="u_Wp-B7MnKJxYU2RvBDN-47" value="&lt;font style=&quot;font-size: 10px;&quot;&gt;Authorization google fit&amp;nbsp;request&lt;/font&gt;" style="text;html=1;align=center;verticalAlign=middle;resizable=0;points=[];autosize=1;strokeColor=none;fillColor=none;" parent="1" vertex="1">
          <mxGeometry x="247.5" y="490" width="160" height="30" as="geometry" />
        </mxCell>
        <mxCell id="u_Wp-B7MnKJxYU2RvBDN-53" value="&lt;font style=&quot;font-size: 10px;&quot;&gt;Authorization google fit&amp;nbsp;&lt;br&gt;request with body&lt;/font&gt;" style="text;html=1;align=center;verticalAlign=middle;resizable=0;points=[];autosize=1;strokeColor=none;fillColor=none;" parent="1" vertex="1">
          <mxGeometry x="110.25" y="570" width="130" height="40" as="geometry" />
        </mxCell>
        <mxCell id="u_Wp-B7MnKJxYU2RvBDN-56" value="&lt;font style=&quot;font-size: 9.5px;&quot;&gt;Authorization google fit&amp;nbsp;response&lt;/font&gt;" style="text;html=1;align=center;verticalAlign=middle;resizable=0;points=[];autosize=1;strokeColor=none;fillColor=none;" parent="1" vertex="1">
          <mxGeometry x="100.25" y="610" width="160" height="30" as="geometry" />
        </mxCell>
        <mxCell id="u_Wp-B7MnKJxYU2RvBDN-57" value="&lt;font style=&quot;font-size: 10px;&quot;&gt;Infomation sleep response&lt;/font&gt;" style="text;html=1;align=center;verticalAlign=middle;resizable=0;points=[];autosize=1;strokeColor=none;fillColor=none;" parent="1" vertex="1">
          <mxGeometry x="112.75" y="812" width="140" height="30" as="geometry" />
        </mxCell>
        <mxCell id="u_Wp-B7MnKJxYU2RvBDN-58" value="&lt;font style=&quot;font-size: 10px;&quot;&gt;Infomation pulse request&lt;/font&gt;" style="text;html=1;align=center;verticalAlign=middle;resizable=0;points=[];autosize=1;strokeColor=none;fillColor=none;" parent="1" vertex="1">
          <mxGeometry x="272.24" y="702" width="130" height="30" as="geometry" />
        </mxCell>
        <mxCell id="u_Wp-B7MnKJxYU2RvBDN-59" value="&lt;font style=&quot;font-size: 10px;&quot;&gt;Infomation pulse response&lt;/font&gt;" style="text;html=1;align=center;verticalAlign=middle;resizable=0;points=[];autosize=1;strokeColor=none;fillColor=none;" parent="1" vertex="1">
          <mxGeometry x="272.5" y="732" width="140" height="30" as="geometry" />
        </mxCell>
        <mxCell id="u_Wp-B7MnKJxYU2RvBDN-60" value="&lt;font style=&quot;font-size: 9.5px;&quot;&gt;Сalculation status sleep response&lt;/font&gt;" style="text;html=1;align=center;verticalAlign=middle;resizable=0;points=[];autosize=1;strokeColor=none;fillColor=none;" parent="1" vertex="1">
          <mxGeometry x="407.5" y="772" width="170" height="30" as="geometry" />
        </mxCell>
        <mxCell id="VLgJ4dFiVKPVcFpdIN3D-3" style="edgeStyle=orthogonalEdgeStyle;rounded=0;orthogonalLoop=1;jettySize=auto;html=1;endArrow=oval;endFill=1;startArrow=classic;startFill=1;" parent="1" edge="1">
          <mxGeometry relative="1" as="geometry">
            <mxPoint x="-52.75" y="315" as="targetPoint" />
            <mxPoint x="100.25" y="315" as="sourcePoint" />
            <Array as="points">
              <mxPoint x="-52.75" y="315" />
            </Array>
          </mxGeometry>
        </mxCell>
        <mxCell id="VLgJ4dFiVKPVcFpdIN3D-4" value="&lt;font style=&quot;font-size: 10px;&quot;&gt;Register in system&lt;/font&gt;" style="text;html=1;align=center;verticalAlign=middle;resizable=0;points=[];autosize=1;strokeColor=none;fillColor=none;" parent="1" vertex="1">
          <mxGeometry x="-28" y="295" width="100" height="26" as="geometry" />
        </mxCell>
        <mxCell id="VLgJ4dFiVKPVcFpdIN3D-6" style="edgeStyle=orthogonalEdgeStyle;rounded=0;orthogonalLoop=1;jettySize=auto;html=1;endArrow=oval;endFill=1;startArrow=classic;startFill=1;" parent="1" edge="1">
          <mxGeometry relative="1" as="geometry">
            <mxPoint x="-54.5" y="434" as="targetPoint" />
            <mxPoint x="98.5" y="434" as="sourcePoint" />
            <Array as="points">
              <mxPoint x="-54.5" y="434" />
            </Array>
          </mxGeometry>
        </mxCell>
        <mxCell id="VLgJ4dFiVKPVcFpdIN3D-7" value="&lt;font style=&quot;font-size: 10px;&quot;&gt;Authorization google fit&lt;/font&gt;" style="text;html=1;align=center;verticalAlign=middle;resizable=0;points=[];autosize=1;strokeColor=none;fillColor=none;" parent="1" vertex="1">
          <mxGeometry x="-39.75" y="414" width="120" height="26" as="geometry" />
        </mxCell>
        <mxCell id="VLgJ4dFiVKPVcFpdIN3D-8" style="edgeStyle=orthogonalEdgeStyle;rounded=0;orthogonalLoop=1;jettySize=auto;html=1;endArrow=oval;endFill=1;startArrow=classic;startFill=1;" parent="1" edge="1">
          <mxGeometry relative="1" as="geometry">
            <mxPoint x="100.25" y="849" as="targetPoint" />
            <mxPoint x="-59.75" y="849.01" as="sourcePoint" />
            <Array as="points">
              <mxPoint x="-35.75" y="849.01" />
              <mxPoint x="-35.75" y="849.01" />
            </Array>
          </mxGeometry>
        </mxCell>
        <mxCell id="VLgJ4dFiVKPVcFpdIN3D-9" value="&lt;span style=&quot;font-size: 10px;&quot;&gt;Check need to wake up&lt;/span&gt;" style="text;html=1;align=center;verticalAlign=middle;resizable=0;points=[];autosize=1;strokeColor=none;fillColor=none;" parent="1" vertex="1">
          <mxGeometry x="117.25" y="692" width="123" height="26" as="geometry" />
        </mxCell>
        <mxCell id="VLgJ4dFiVKPVcFpdIN3D-12" value="&lt;span style=&quot;color: rgb(0, 0, 0); font-family: Helvetica; font-size: 10px; font-style: normal; font-variant-ligatures: normal; font-variant-caps: normal; font-weight: 400; letter-spacing: normal; orphans: 2; text-indent: 0px; text-transform: none; widows: 2; word-spacing: 0px; -webkit-text-stroke-width: 0px; background-color: rgb(255, 255, 255); text-decoration-thickness: initial; text-decoration-style: initial; text-decoration-color: initial; float: none; display: inline !important;&quot;&gt;Wake up user&lt;/span&gt;" style="text;whiteSpace=wrap;html=1;verticalAlign=middle;align=center;" parent="1" vertex="1">
          <mxGeometry x="-42.99827586206884" y="821.9975862068965" width="133" height="36" as="geometry" />
        </mxCell>
        <mxCell id="Dd5FPMdaK51ppkrlt_WB-1" style="edgeStyle=orthogonalEdgeStyle;rounded=0;orthogonalLoop=1;jettySize=auto;html=1;endArrow=oval;endFill=1;startArrow=classic;startFill=1;" parent="1" edge="1">
          <mxGeometry relative="1" as="geometry">
            <mxPoint x="-52.75" y="699" as="targetPoint" />
            <mxPoint x="100.25" y="699" as="sourcePoint" />
            <Array as="points">
              <mxPoint x="-52.75" y="699" />
            </Array>
          </mxGeometry>
        </mxCell>
        <mxCell id="Dd5FPMdaK51ppkrlt_WB-3" value="&lt;span style=&quot;color: rgb(0, 0, 0); font-family: Helvetica; font-size: 10px; font-style: normal; font-variant-ligatures: normal; font-variant-caps: normal; font-weight: 400; letter-spacing: normal; orphans: 2; text-indent: 0px; text-transform: none; widows: 2; word-spacing: 0px; -webkit-text-stroke-width: 0px; background-color: rgb(255, 255, 255); text-decoration-thickness: initial; text-decoration-style: initial; text-decoration-color: initial; float: none; display: inline !important;&quot;&gt;Wake up user&lt;/span&gt;" style="text;whiteSpace=wrap;html=1;verticalAlign=middle;align=center;" parent="1" vertex="1">
          <mxGeometry x="-39.74827586206884" y="670.9975862068965" width="133" height="36" as="geometry" />
        </mxCell>
      </root>
    </mxGraphModel>
  </diagram>
</mxfile>
